<svg xmlns="http://www.w3.org/2000/svg"  viewBox="0 0 40 40" width="480px" height="480px"><path fill="#f76d6d" d="M30.128,27.412c-0.48-0.627-1.629-2.307-1.629-4.018c0-1.84,0.911-2.895,2.5-2.895 s2.5,1.055,2.5,2.895C33.5,25.896,31.012,27.073,30.128,27.412z"/><path fill="#c74343" d="M31,21c1.308,0,2,0.828,2,2.394c0,1.943-1.735,2.982-2.697,3.409C29.797,26.079,29,24.728,29,23.394 C29,21.828,29.692,21,31,21 M31,20c-1.629,0-3,1.018-3,3.394S29.959,28,29.959,28S34,26.833,34,23.394C34,21.018,32.629,20,31,20 L31,20z"/><path fill="#f76d6d" d="M9.871,27.414C8.981,27.08,6.5,25.922,6.5,23.394c0-1.84,0.911-2.895,2.5-2.895s2.5,1.055,2.5,2.895 C11.5,25.114,10.351,26.79,9.871,27.414z"/><path fill="#c74343" d="M9,21c1.308,0,2,0.828,2,2.394c0,1.341-0.794,2.686-1.3,3.408C8.74,26.372,7,25.327,7,23.394 C7,21.828,7.692,21,9,21 M9,20c-1.629,0-3,1.018-3,3.394C6,26.833,10.041,28,10.041,28S12,25.77,12,23.394S10.629,20,9,20L9,20z"/><path fill="#f7a3a3" d="M19.999,38.5C15.093,38.5,9.5,30.243,9.5,23c0-8.104,1.785-13.5,10.5-13.5 c9.993,0,10.5,5.13,10.5,13.5C30.5,30.243,24.906,38.5,19.999,38.5z"/><path fill="#c74343" d="M20,10c9.536,0,10,4.697,10,13c0,7.584-5.727,15-10.001,15C15.725,38,10,30.584,10,23 C10,14.974,11.673,10,20,10 M20,9C10.511,9,9,15.259,9,23s5.904,16,10.999,16S31,30.741,31,23S30.783,9,20,9L20,9z"/><g><path fill="#f76d6d" d="M30.689,22.527c-0.123-0.537-0.182-1.124-0.189-1.536c0-6.19-3.562-8.706-5.094-9.5l-1.065-0.553 l0.283,1.106c0.168,0.537,0.067,1.087-0.06,1.784c-0.1,0.547-0.216,1.181-0.221,1.94c-0.133-0.102-0.269-0.202-0.403-0.303 c-0.491-0.365-1-0.743-1.282-1.109c-0.353-0.459-0.425-0.647-0.617-1.15c-0.123-0.321-0.287-0.75-0.585-1.412l-0.641-1.423 l-0.306,1.53c-0.162,0.809-0.49,1.248-0.871,1.758c-0.417,0.558-0.877,1.173-1.059,2.281c-1.537-1.597-1.981-3.444-2.088-4.031 l-0.177-0.97l-0.679,0.716c-1.447,1.528-2,2.384-1.42,4.527c-0.967-0.485-1.602-1.294-1.721-2.246l-0.187-1.493l-0.744,1.309 c-0.854,1.502-1.954,5.348-2.064,7.218c-0.009,0.14-0.014,0.285-0.019,0.433C9.47,21.774,9.457,22.15,9.389,22.51 c-0.422-1.28-1.303-2.313-2.105-3.256C6.366,18.179,5.5,17.163,5.5,16c0-0.3,0.143-0.805,0.308-1.389 c0.445-1.576,1.093-3.865,0.085-6.051C7.631,8.819,8.02,9.854,8.34,10.707c0.073,0.196,0.141,0.372,0.213,0.517L9.5,13.118V11 c0-0.315,0.091-0.894,0.196-1.563C9.973,7.682,10.365,5.192,9.9,3.108c1.495,0.992,2.145,1.968,2.776,2.918 c0.442,0.664,0.86,1.291,1.526,1.857l0.618,0.524l0.191-0.787c0,0,0.324-1.328,0.585-2.544c0.34-1.303,1.604-2.524,3.201-3.187 c-0.242,0.575-0.349,1.231-0.304,1.923c0.075,1.134,0.558,2.156,1.228,2.603l0.558,0.372l0.197-0.641 c1.023-3.325,3.675-4.196,5.899-4.495c-1.005,1.054-1.865,2.501-2.236,3.49c-0.153,0.461-0.232,1.375,0.18,1.947 c0.212,0.294,0.529,0.456,0.893,0.456c0.896,0,2.328-1.032,2.965-2.3c0.262,0.772,0.033,1.497-0.175,2.158 c-0.238,0.757-0.534,1.698,0.441,2.186c0.17,0.07,0.308,0.097,0.446,0.097c0.373,0,0.729-0.188,1.057-0.557 c0.642-0.721,1.136-2.09,1.387-3.307c0.627,1.888,0.139,3.5-0.238,4.747c-0.283,0.935-0.507,1.673-0.172,2.265 c0.181,0.318,0.502,0.537,0.955,0.65c0.094,0.023,0.188,0.035,0.281,0.035c0.267,0,0.655-0.096,0.993-0.55 c0.337-0.451,0.535-1.142,0.581-1.916c0.44,1.005,0.739,2.251,0.692,3.498c-0.075,2.027-0.943,4.147-2.112,5.154 C31.737,20.22,31.077,21.426,30.689,22.527z"/><path fill="#c74343" d="M25.097,2.417c-0.654,0.903-1.168,1.868-1.437,2.585c-0.186,0.557-0.271,1.65,0.254,2.379 c0.309,0.428,0.77,0.664,1.299,0.664c0.773,0,1.706-0.51,2.453-1.263c-0.04,0.15-0.088,0.306-0.14,0.472 c-0.232,0.735-0.663,2.104,0.694,2.783l0.037,0.019l0.039,0.015c0.192,0.077,0.392,0.116,0.594,0.116 c0.359,0,0.898-0.126,1.431-0.725c0.299-0.336,0.567-0.794,0.797-1.308c-0.066,0.832-0.295,1.588-0.502,2.271 c-0.305,1.008-0.569,1.878-0.128,2.656c0.251,0.442,0.677,0.741,1.268,0.889c0.133,0.033,0.269,0.05,0.403,0.05 c0.538,0,1.034-0.266,1.394-0.75c0.085-0.114,0.162-0.241,0.232-0.378c0.108,0.537,0.162,1.095,0.141,1.643 c-0.07,1.899-0.868,3.87-1.952,4.805c-0.327,0.29-0.669,0.759-0.98,1.305c-0.134-6.219-3.778-8.778-5.361-9.598l-0.048-0.025 l-2.186-1.215l0.746,2.387c0.131,0.419,0.045,0.891-0.075,1.544c-0.06,0.326-0.125,0.681-0.17,1.076 c-0.346-0.263-0.666-0.525-0.848-0.762c-0.308-0.401-0.359-0.533-0.547-1.024c-0.123-0.322-0.292-0.763-0.596-1.439l-1.281-2.846 l-0.612,3.06c-0.14,0.698-0.423,1.077-0.781,1.557c-0.303,0.406-0.647,0.866-0.896,1.528c-0.964-1.296-1.274-2.604-1.358-3.068 L16.631,9.88l-1.357,1.432c-1.218,1.286-1.874,2.19-1.771,3.702c-0.28-0.332-0.459-0.719-0.511-1.138l-0.373-2.987l-1.488,2.617 c-0.841,1.479-1.912,5.153-2.107,7.158c-0.417-0.627-0.901-1.195-1.36-1.734C6.771,17.883,6,16.979,6,16 c0-0.23,0.147-0.75,0.289-1.252c0.38-1.344,0.956-3.381,0.403-5.436c0.724,0.357,0.954,0.971,1.18,1.571 c0.08,0.214,0.155,0.407,0.234,0.565L10,15.236V11c0-0.276,0.092-0.864,0.19-1.486c0.23-1.46,0.537-3.412,0.384-5.262 c0.784,0.694,1.24,1.379,1.687,2.051c0.442,0.664,0.898,1.35,1.618,1.962l1.235,1.05l0.384-1.574 c0.003-0.013,0.329-1.349,0.578-2.515c0.235-0.903,0.966-1.758,1.952-2.379c-0.043,0.323-0.054,0.658-0.032,0.999 c0.086,1.304,0.641,2.449,1.449,2.987l1.116,0.744l0.394-1.282C21.686,3.92,23.253,2.897,25.097,2.417 M28,1 c-2.505,0.173-6.618,0.509-8,5c-1.08-0.72-1.613-3.558,0.032-5c-2.245,0.432-4.405,1.986-4.923,3.973 c-0.259,1.209-0.582,2.531-0.582,2.531C12.8,6.035,12.8,3.986,9,2c1.382,2.85,0,7.618,0,9c-0.432-0.864-0.632-3-4-3 c2.083,3.042,0,6.618,0,8c0,2.85,4.141,4.531,4.141,8.071C10.046,23.167,9.943,21.961,10,21c0.103-1.757,1.18-5.558,2-7 c0.173,1.382,1.273,2.568,3,3c-0.95-2.677-0.555-3.359,1-5c0.173,0.95,0.841,3.273,3,5c0-2.875,1.568-2.841,2-5 c0.777,1.727,0.625,1.833,1.262,2.662s2.073,1.555,2.677,2.332c-0.398-2.452,0.595-3.716,0.163-5.098 C25.484,12.108,30,14.129,30,21c0,0,0.038,2.254,0.856,3.071c0-1.036,1.008-3.294,1.785-3.985c1.244-1.072,2.203-3.274,2.287-5.515 C35.011,12.301,34.018,10.018,33,9c0.562,1.888,0.092,4.02-0.84,4.02c-0.052,0-0.105-0.007-0.16-0.02c-2.418-0.605,2.109-4.164-1-9 c0.163,1.384-0.902,5.187-2.109,5.187c-0.074,0-0.148-0.014-0.223-0.044C27.286,8.452,30.073,6.332,28,4 c0,1.468-1.837,3.045-2.787,3.045c-0.777,0-0.777-1.209-0.605-1.727C25.127,3.936,26.618,1.691,28,1L28,1z"/></g><path fill="#ffeea3" d="M28 22c0 0-1.567 3-3.5 3S21 23.5 21 23.5s1.567-1.5 3.5-1.5S28 22 28 22zM19 23.5c0 0-1.567 1.5-3.5 1.5S12 22 12 22s1.567 0 3.5 0S19 23.5 19 23.5z"/></svg>